<?xml version="1.0" standalone="no"?>
<!DOCTYPE svg PUBLIC "-//W3C//DTD SVG 20010904//EN"
 "http://www.w3.org/TR/2001/REC-SVG-20010904/DTD/svg10.dtd">
<svg version="1.0" xmlns="http://www.w3.org/2000/svg"
 width="180.000000pt" height="180.000000pt" viewBox="0 0 180.000000 180.000000"
 preserveAspectRatio="xMidYMid meet">
<metadata>
Created by potrace 1.11, written by Peter Selinger 2001-2013
</metadata>
<g transform="translate(0.000000,180.000000) scale(0.100000,-0.100000)"
fill="#000000" stroke="none">
<path d="M725 1417 c-22 -8 -55 -21 -73 -31 l-32 -17 2 -202 3 -202 100 -1
c94 -2 100 -3 122 -29 19 -21 23 -38 23 -88 0 -54 3 -64 22 -72 35 -16 61 -60
60 -102 -2 -49 -56 -103 -102 -103 -114 0 -156 146 -59 204 27 16 29 22 29 77
0 54 -2 59 -22 60 -13 1 -52 2 -88 4 -97 3 -98 3 -120 25 -19 19 -20 33 -20
216 l0 197 -49 -6 c-101 -12 -198 -83 -246 -180 -21 -43 -34 -56 -76 -77 -67
-33 -132 -99 -166 -167 -38 -78 -38 -184 -1 -265 49 -106 142 -170 248 -170
30 0 66 5 80 10 19 7 31 6 45 -5 24 -18 111 -63 122 -63 4 0 7 74 5 165 -3
182 3 167 -71 167 -27 0 -40 -7 -65 -36 -39 -46 -80 -58 -128 -39 -88 35 -85
168 5 202 50 19 120 -11 132 -56 5 -21 12 -23 66 -23 50 0 64 -4 84 -25 25
-24 25 -27 25 -196 l0 -171 45 7 c36 5 52 2 78 -14 91 -56 289 -56 369 0 20
14 32 17 50 10 l24 -9 0 348 c-1 192 -5 352 -9 357 -5 4 -34 8 -65 8 -50 0
-57 -2 -71 -26 -29 -51 -92 -72 -143 -48 -42 19 -63 62 -59 121 2 29 51 77 86
84 43 8 100 -19 116 -55 12 -26 16 -28 73 -27 42 0 69 -6 89 -18 l27 -18 0
-199 0 -198 112 2 c107 2 111 3 114 25 3 14 -1 22 -10 22 -18 0 -64 55 -72 86
-15 60 42 124 111 124 37 0 48 -5 74 -35 51 -58 37 -136 -30 -171 -16 -8 -28
-18 -28 -22 10 -62 -33 -82 -167 -80 l-99 1 -3 -145 -3 -145 58 9 c59 9 145
52 178 88 13 14 25 18 39 14 35 -12 121 -6 159 9 55 24 122 91 147 150 61 142
11 293 -128 383 -40 26 -62 47 -65 64 -11 49 -86 147 -140 183 -51 34 -77 43
-144 51 -18 3 -63 19 -100 38 -62 30 -74 33 -150 31 -46 -2 -100 -3 -120 -4
-21 0 -65 2 -98 5 -38 4 -75 1 -100 -7z"/>
<path d="M866 1199 c-42 -33 -31 -97 20 -113 79 -25 120 96 43 123 -39 14 -32
15 -63 -10z"/>
<path d="M1402 943 c-33 -29 -36 -57 -9 -88 29 -35 73 -37 99 -5 24 30 23 65
-4 90 -27 25 -59 26 -86 3z"/>
<path d="M282 849 c-26 -10 -45 -53 -37 -80 22 -67 104 -65 128 4 16 45 -42
94 -91 76z"/>
<path d="M815 738 c-27 -15 -35 -28 -35 -59 0 -36 20 -59 58 -63 39 -5 72 24
72 64 0 45 -57 80 -95 58z"/>
</g>
</svg>
